<svg xmlns="http://www.w3.org/2000/svg" viewBox="0 0 168 38" fill="none" width="100%" height="100%">
  <path fill="currentColor" d="M44.175 31.125C41.75 31.125 40 29.9 40 26.475V19.75h-1.8V17.4l1.825-.75 1.3-3.325h2.4v3.55h3.525v2.875h-3.525v6.825c0 .975.55 1.475 1.475 1.475.6 0 1.375-.2 1.925-.625l.975 2.825c-.475.35-1.575.875-3.925.875ZM59.258 27.025l1.65 2.675c-1.1.9-2.474 1.575-5.175 1.575-4.45 0-6.724-2.5-6.724-7.375 0-4.575 2.55-7.3 6.624-7.3 3.6 0 5.675 2.275 5.675 5.725 0 .725-.025 1.425-.175 2.525h-8.425c.05 2.225 1.05 3.45 3.45 3.45 1.526 0 2.575-.725 3.1-1.275Zm-3.725-7.575c-1.7 0-2.7 1.25-2.75 2.9h4.975v-.375c0-1.65-.7-2.525-2.225-2.525ZM63.29 24.075c0-4.975 2.7-7.475 6.526-7.475 2.275 0 3.925.775 4.875 2.05l-2.525 2.4c-.2-.35-.925-1.35-2.35-1.35-1.625 0-2.675 1-2.675 4.075 0 3 .875 4.4 2.65 4.4 1.25 0 2.05-.75 2.4-1.375l2.4 2.225c-.8 1.075-2.15 2.25-5.15 2.25-3.825 0-6.15-2.1-6.15-7.2ZM84.238 16.775c2.75 0 4.325 1.525 4.325 4.7V31h-3.775v-8.775c0-1.5-.675-2.25-1.95-2.25-.9 0-1.95.675-2.425 1.55V31h-3.775V12.05h3.775v6.25h.1c.8-.825 2.1-1.525 3.725-1.525ZM105.028 27.075c0-2.05-6.65-1.375-6.65-6.075 0-2.3 1.975-4.375 5.25-4.375 2.55 0 4.175.9 5.1 1.975l-2.425 2.375c-.5-.575-1.475-1.325-2.775-1.325-.85 0-1.4.45-1.4 1.1 0 2.125 6.65 1.375 6.65 6.1 0 1.875-1.475 4.4-5.575 4.4-3.1 0-4.975-1.3-5.75-2.125l2.25-2.6c.625.725 2 1.75 3.7 1.75 1.175 0 1.625-.55 1.625-1.2ZM123.606 23.35c0 5.2-2.95 7.725-6.35 7.725a9.69 9.69 0 0 1-2.175-.225v5h-3.75V16.875h2.775l.8 1.2h.1c.525-.625 1.6-1.45 3.375-1.45 3.1 0 5.225 2.325 5.225 6.725Zm-8.575 4.25c.55.325 1.4.425 1.775.425 1.825 0 2.95-1.05 2.95-4.35 0-2.8-1.175-4-2.65-4-.85 0-1.625.4-2.075 1.075v6.85ZM129.373 23.85c0 2.925.725 4.475 2.625 4.475 1.925 0 2.525-1.4 2.525-4.275 0-2.925-.725-4.475-2.675-4.475-1.725 0-2.475 1.4-2.475 4.275Zm2.5 7.425c-4.85 0-6.375-2.9-6.375-7.275 0-4.35 1.825-7.375 6.5-7.375 4.875 0 6.4 2.9 6.4 7.275 0 4.35-1.85 7.375-6.525 7.375ZM144.168 23.85c0 2.925.725 4.475 2.625 4.475 1.925 0 2.525-1.4 2.525-4.275 0-2.925-.725-4.475-2.675-4.475-1.725 0-2.475 1.4-2.475 4.275Zm2.5 7.425c-4.85 0-6.375-2.9-6.375-7.275 0-4.35 1.825-7.375 6.5-7.375 4.875 0 6.4 2.9 6.4 7.275 0 4.35-1.85 7.375-6.525 7.375ZM167.763 21.225V31h-3.775v-8.975c0-1.45-.675-2.3-1.95-2.3-1.1 0-2 .65-2.425 1.675V31h-3.775V16.875h2.95l.75 1.325h.1c.85-1.025 2.325-1.675 3.8-1.675 2.75 0 4.325 1.525 4.325 4.7Z"/>
  <mask id="a" width="38" height="38" x="0" y="0" maskUnits="userSpaceOnUse" style="mask-type:alpha">
    <rect width="23.75" height="10.483" fill="#4975F5" rx="5.241"/>
    <rect width="10.857" height="38" x="13.571" fill="#4975F5" rx="5.429"/>
    <rect width="10.668" height="10.668" x="27.332" fill="#4975F5" rx="5.334"/>
  </mask>
  <g mask="url(#a)">
    <path fill="url(#b)" d="M-.448-.338h38.895v38.895H-.448z"/>
  </g>
  <defs>
    <linearGradient id="b" x1="38.447" x2="1.497" y1="-.338" y2="36.612" gradientUnits="userSpaceOnUse">
      <stop stop-color="#3358C8"/>
      <stop offset="1" stop-color="#4975F5"/>
    </linearGradient>
  </defs>
</svg>